<?xml version="1.0" encoding="UTF-8"?>
<svg xmlns="http://www.w3.org/2000/svg" width="173" height="45" viewBox="0 0 173 45" fill="none">
  <g clip-path="url(#clip0_1524_1007)">
    <path d="M3.13164 40.5182C2.66194 40.5182 2.23618 40.4152 1.85437 40.2091C1.47255 40.0061 1.16346 39.7152 0.927094 39.3364C0.763457 39.0788 0.646791 38.7924 0.577094 38.4773C0.519518 38.2348 0.49073 37.9803 0.49073 37.7136C0.49073 37.6348 0.496791 37.4864 0.508912 37.2682C0.524063 37.047 0.5877 36.7409 0.699821 36.35C0.811942 35.9561 0.968003 35.55 1.168 35.1318L1.94073 35.5C1.77103 35.8515 1.63618 36.1894 1.53618 36.5136C1.43921 36.8348 1.37861 37.1394 1.35437 37.4273C1.34528 37.5242 1.34073 37.6182 1.34073 37.7091C1.34073 37.8909 1.36043 38.0833 1.39982 38.2864C1.44225 38.4924 1.52558 38.6924 1.64982 38.8864C1.8074 39.1318 2.01346 39.3212 2.268 39.4545C2.52255 39.5909 2.81043 39.6591 3.13164 39.6591H4.19982C4.54831 39.6591 4.83164 39.6212 5.04982 39.5455C5.27103 39.4727 5.44225 39.3697 5.56346 39.2364C5.6877 39.103 5.77103 38.9409 5.81346 38.75C5.85891 38.5621 5.88164 38.353 5.88164 38.1227V34.9273H6.74073V38.1227C6.74073 38.9227 6.52861 39.5212 6.10437 39.9182C5.68012 40.3182 5.04528 40.5182 4.19982 40.5182H3.13164ZM3.168 34.5682L3.94073 33.7864L4.73164 34.5773L3.94982 35.3591L3.168 34.5682ZM8.87521 37.9955H8.01612V31.5136H8.87521V37.9955ZM12.7545 38H12.5591C12.2682 38 12 37.9424 11.7545 37.8273C11.7545 38.2515 11.6955 38.6303 11.5773 38.9636C11.4591 39.297 11.2864 39.5788 11.0591 39.8091C10.8318 40.0424 10.5515 40.2197 10.2182 40.3409C9.88788 40.4621 9.50757 40.5227 9.07727 40.5227H8.45V39.6636H9.07727C9.38939 39.6636 9.65909 39.6258 9.88636 39.55C10.1167 39.4773 10.3061 39.3636 10.4545 39.2091C10.6061 39.0545 10.7167 38.8576 10.7864 38.6182C10.8591 38.3788 10.8955 38.0939 10.8955 37.7636V34.9273H11.7545V36.4318C11.7545 36.6015 11.7894 36.7348 11.8591 36.8318C11.9318 36.9258 12.0152 36.9955 12.1091 37.0409C12.203 37.0864 12.2924 37.1152 12.3773 37.1273C12.4652 37.1364 12.5258 37.1409 12.5591 37.1409H12.7545V38ZM12.3544 38V37.1409H15.0181C15.2363 37.1409 15.4166 37.1167 15.559 37.0682C15.7044 37.0167 15.7984 36.947 15.8408 36.8591C15.862 36.8136 15.8726 36.7621 15.8726 36.7045C15.8726 36.653 15.8575 36.5803 15.8272 36.4864C15.7999 36.3894 15.7393 36.2636 15.6453 36.1091C15.5514 35.9515 15.4363 35.7864 15.2999 35.6136C15.1635 35.4409 15.0166 35.2682 14.859 35.0955C14.7014 34.9227 14.5393 34.7545 14.3726 34.5909C14.206 34.4242 14.0453 34.2712 13.8908 34.1318C13.7363 33.9894 13.5953 33.8652 13.4681 33.7591C13.3408 33.65 13.2363 33.5667 13.1544 33.5091L13.2408 32.5409L17.3999 30.7136L17.7453 31.4955L14.1044 33.0864C14.1953 33.1773 14.312 33.2924 14.4544 33.4318C14.5969 33.5682 14.7514 33.7212 14.9181 33.8909C15.0847 34.0576 15.2544 34.2364 15.4272 34.4273C15.5999 34.6152 15.7635 34.8045 15.9181 34.9955C16.0726 35.1864 16.209 35.3742 16.3272 35.5591C16.4484 35.7409 16.5378 35.9091 16.5953 36.0636C16.6469 36.197 16.6832 36.3212 16.7044 36.4364C16.7196 36.5364 16.7272 36.6273 16.7272 36.7091C16.7272 36.7242 16.7256 36.7591 16.7226 36.8136C16.7226 36.8682 16.712 36.9333 16.6908 37.0091C16.6726 37.0848 16.6514 37.15 16.6272 37.2045C16.5938 37.2803 16.5423 37.3652 16.4726 37.4591C16.4029 37.55 16.3044 37.6364 16.1772 37.7182C16.0529 37.797 15.8969 37.8636 15.709 37.9182C15.5211 37.9727 15.2908 38 15.0181 38H12.3544ZM13.3908 31.2409L16.8408 29.7545L17.0317 30.1636L13.3408 31.7636L13.3908 31.2409ZM23.2158 38H23.1021C22.6173 38 22.193 37.897 21.8294 37.6909C21.4688 37.4818 21.1915 37.1909 20.9976 36.8182C20.9006 36.9515 20.7839 37.0682 20.6476 37.1682C20.5143 37.2652 20.3627 37.3515 20.193 37.4273C20.0961 37.4667 19.9839 37.4985 19.8567 37.5227C19.7294 37.547 19.5946 37.5591 19.4521 37.5591C19.3097 37.5591 19.1627 37.5424 19.0112 37.5091C18.8627 37.4758 18.7173 37.4197 18.5749 37.3409C18.3567 37.2258 18.1809 37.0742 18.0476 36.8864C17.9173 36.6955 17.8309 36.4712 17.7885 36.2136C17.7673 36.0955 17.7567 35.9788 17.7567 35.8636C17.7567 35.6697 17.7946 35.453 17.8703 35.2136C17.9491 34.9742 18.1067 34.7318 18.343 34.4864C18.7582 34.0621 19.3446 33.7379 20.1021 33.5136L20.0158 33.0227L20.8521 32.8455C20.9249 33.1485 20.9885 33.4182 21.043 33.6545C21.0976 33.8879 21.1461 34.0985 21.1885 34.2864C21.1976 34.3227 21.2112 34.3833 21.2294 34.4682C21.2506 34.553 21.2749 34.6515 21.3021 34.7636C21.3294 34.8727 21.3582 34.9909 21.3885 35.1182C21.4188 35.2455 21.4491 35.3697 21.4794 35.4909C21.5097 35.6121 21.5385 35.7258 21.5658 35.8318C21.593 35.9379 21.6173 36.0258 21.6385 36.0955C21.6991 36.3227 21.7885 36.5061 21.9067 36.6455C22.0249 36.7818 22.1536 36.8879 22.293 36.9636C22.4324 37.0364 22.5733 37.0848 22.7158 37.1091C22.8612 37.1303 22.99 37.1409 23.1021 37.1409H23.2158V38ZM20.3294 34.3409C20.0294 34.4288 19.7643 34.5333 19.5339 34.6545C19.3036 34.7758 19.1127 34.9106 18.9612 35.0591C18.8127 35.2045 18.7067 35.3621 18.643 35.5318C18.6006 35.6439 18.5794 35.7591 18.5794 35.8773C18.5794 35.9379 18.5855 36 18.5976 36.0636C18.6188 36.1909 18.6643 36.2985 18.7339 36.3864C18.8036 36.4712 18.8855 36.5394 18.9794 36.5909C19.0461 36.6303 19.1188 36.6591 19.1976 36.6773C19.2764 36.6924 19.3552 36.7 19.4339 36.7H19.4794C19.543 36.7 19.6082 36.6955 19.6749 36.6864C19.7415 36.6742 19.8036 36.6561 19.8612 36.6318C20.243 36.4742 20.4658 36.1879 20.5294 35.7727C20.5415 35.6758 20.5476 35.5848 20.5476 35.5C20.5476 35.4545 20.543 35.3909 20.5339 35.3091C20.5249 35.2273 20.5158 35.1652 20.5067 35.1227L20.3294 34.3409ZM22.8325 37.1409H22.9053C23.2234 37.1409 23.4689 37.1121 23.6416 37.0545C23.8174 36.9939 23.9446 36.9197 24.0234 36.8318C24.1022 36.7409 24.1477 36.6424 24.1598 36.5364C24.175 36.4303 24.1825 36.3288 24.1825 36.2318V31.5136H25.0371V36.2318C25.0371 36.3379 25.0462 36.4455 25.0643 36.5545C25.0856 36.6606 25.125 36.7576 25.1825 36.8455C25.2431 36.9333 25.3265 37.0045 25.4325 37.0591C25.5386 37.1136 25.6795 37.1409 25.8553 37.1409H25.928V38H25.8553C25.6219 38 25.4007 37.9576 25.1916 37.8727C24.9856 37.7879 24.7901 37.6515 24.6053 37.4636C24.2568 37.8212 23.6901 38 22.9053 38H22.8325V37.1409ZM28.8381 37.3591C28.8594 37.3591 28.8881 37.3576 28.9245 37.3545C28.9639 37.3515 29.0048 37.3394 29.0472 37.3182C29.0927 37.297 29.1366 37.2652 29.179 37.2227C29.2245 37.1773 29.2639 37.1152 29.2972 37.0364C29.3336 36.9545 29.3624 36.8515 29.3836 36.7273C29.4078 36.6 29.42 36.4455 29.42 36.2636C29.42 36.2303 29.4169 36.1773 29.4109 36.1045C29.4048 36.0318 29.3912 35.9515 29.37 35.8636C29.3487 35.7727 29.3169 35.6803 29.2745 35.5864C29.2351 35.4924 29.1806 35.4061 29.1109 35.3273C29.0412 35.2485 28.9563 35.1848 28.8563 35.1364C28.7563 35.0848 28.6351 35.0591 28.4927 35.0591C28.3594 35.0591 28.2457 35.0833 28.1518 35.1318C28.0609 35.1773 27.9836 35.2409 27.92 35.3227C27.8563 35.4045 27.8033 35.5015 27.7609 35.6136C27.7184 35.7227 27.679 35.8424 27.6427 35.9727C27.6063 36.1 27.57 36.2348 27.5336 36.3773C27.4972 36.5167 27.4548 36.6561 27.4063 36.7955C27.5639 36.8742 27.7094 36.9485 27.8427 37.0182C27.976 37.0879 28.1003 37.1485 28.2154 37.2C28.3306 37.2485 28.4381 37.2879 28.5381 37.3182C28.6412 37.3455 28.7412 37.3591 28.8381 37.3591ZM28.4927 34.2045C28.7897 34.2045 29.0472 34.2621 29.2654 34.3773C29.4866 34.4894 29.67 34.6409 29.8154 34.8318C29.9609 35.0227 30.0684 35.2424 30.1381 35.4909C30.2109 35.7394 30.2472 35.997 30.2472 36.2636C30.2472 36.5576 30.2215 36.8106 30.17 37.0227C30.1215 37.2348 30.0563 37.4136 29.9745 37.5591C29.8927 37.7015 29.8003 37.8167 29.6972 37.9045C29.5972 37.9924 29.4942 38.0591 29.3881 38.1045C29.2851 38.15 29.1851 38.1803 29.0881 38.1955C28.9912 38.2106 28.9078 38.2182 28.8381 38.2182C28.6897 38.2182 28.5472 38.203 28.4109 38.1727C28.2745 38.1424 28.1351 38.0985 27.9927 38.0409C27.8503 37.9864 27.7003 37.9182 27.5427 37.8364C27.3881 37.7545 27.2169 37.6621 27.029 37.5591C26.7806 37.853 26.4609 38 26.07 38H25.5472V37.1409H26.07C26.1851 37.1409 26.279 37.0985 26.3518 37.0136C26.4275 36.9288 26.4927 36.8182 26.5472 36.6818C26.6018 36.5455 26.6518 36.3894 26.6972 36.2136C26.7427 36.0379 26.7942 35.8576 26.8518 35.6727C26.9124 35.4879 26.9836 35.3076 27.0654 35.1318C27.1472 34.9561 27.2503 34.8 27.3745 34.6636C27.5018 34.5273 27.6548 34.4167 27.8336 34.3318C28.0154 34.247 28.2351 34.2045 28.4927 34.2045ZM33.5393 38C33.2212 37.997 32.9575 37.9758 32.7484 37.9364C32.5424 37.8939 32.3666 37.8348 32.2212 37.7591C32.0787 37.6803 31.9636 37.5833 31.8757 37.4682C31.7909 37.35 31.7242 37.2136 31.6757 37.0591C31.6272 36.9015 31.5954 36.7258 31.5803 36.5318C31.5651 36.3379 31.5575 36.1227 31.5575 35.8864V31.5136H32.4166V35.8864C32.4166 36.15 32.4242 36.3636 32.4393 36.5273C32.4575 36.6909 32.5015 36.8182 32.5712 36.9091C32.6439 36.997 32.7515 37.0576 32.8939 37.0909C33.0393 37.1212 33.2545 37.1379 33.5393 37.1409V38ZM37.3694 38C37.3178 38 37.2587 37.9939 37.1921 37.9818C37.1254 37.9667 37.0466 37.9394 36.9557 37.9C36.8648 37.8606 36.7603 37.8045 36.6421 37.7318C36.5239 37.6591 36.386 37.5636 36.2284 37.4455C35.8769 37.6364 35.4663 37.7773 34.9966 37.8682C34.5269 37.9561 34.0027 38 33.4239 38H33.1603V37.1409H33.4239C33.8603 37.1409 34.2512 37.1167 34.5966 37.0682C34.9421 37.0167 35.2345 36.9439 35.4739 36.85C35.3163 36.7167 35.1587 36.5788 35.0012 36.4364C34.8466 36.2939 34.7042 36.1606 34.5739 36.0364C34.4436 35.9091 34.33 35.8 34.233 35.7091C34.139 35.6152 34.0754 35.55 34.0421 35.5136V35.3318C34.0421 35.2742 34.0451 35.2121 34.0512 35.1455C34.0572 35.0758 34.0694 35.0045 34.0875 34.9318C34.1057 34.8591 34.133 34.7864 34.1694 34.7136C34.2057 34.6379 34.2542 34.5652 34.3148 34.4955C34.5451 34.2379 34.9118 34.1091 35.4148 34.1091H36.9194C37.1709 34.1091 37.3981 34.1712 37.6012 34.2955C37.8042 34.4167 37.9527 34.5848 38.0466 34.8C38.1163 34.9394 38.1497 35.0773 38.1466 35.2136C38.1466 35.347 38.1209 35.4788 38.0694 35.6091C38.0209 35.7364 37.9527 35.8606 37.8648 35.9818C37.78 36.1 37.686 36.2152 37.583 36.3273C37.48 36.4364 37.3739 36.5409 37.2648 36.6409C37.1587 36.7409 37.0603 36.8348 36.9694 36.9227C37.036 36.9682 37.0936 37.0061 37.1421 37.0364C37.1906 37.0636 37.23 37.0848 37.2603 37.1C37.2936 37.1152 37.3178 37.1258 37.333 37.1318C37.3512 37.1348 37.3633 37.1379 37.3694 37.1409H39.033V38H37.3694ZM34.9103 35.1682C34.9709 35.2258 35.0557 35.3061 35.1648 35.4091C35.2739 35.5091 35.3921 35.6182 35.5194 35.7364C35.6497 35.8545 35.78 35.9727 35.9103 36.0909C36.0436 36.2091 36.1633 36.3121 36.2694 36.4C36.433 36.2697 36.589 36.1318 36.7375 35.9864C36.889 35.8409 37.0406 35.6727 37.1921 35.4818C37.2254 35.4394 37.2542 35.3894 37.2784 35.3318C37.2875 35.3106 37.2921 35.2879 37.2921 35.2636C37.2921 35.2273 37.283 35.1909 37.2648 35.1545C37.2406 35.1091 37.2012 35.0667 37.1466 35.0273C37.0921 34.9879 37.0163 34.9682 36.9194 34.9682H35.4148C35.3269 34.9682 35.2542 34.9727 35.1966 34.9818C35.1421 34.9879 35.0966 34.997 35.0603 35.0091C35.0269 35.0212 35.0012 35.0333 34.983 35.0455C34.9678 35.0545 34.9572 35.0636 34.9512 35.0727C34.9421 35.0788 34.9345 35.0909 34.9284 35.1091C34.9224 35.1242 34.9163 35.1439 34.9103 35.1682ZM41.9491 37.3591C41.9703 37.3591 41.9991 37.3576 42.0354 37.3545C42.0748 37.3515 42.1157 37.3394 42.1582 37.3182C42.2036 37.297 42.2476 37.2652 42.29 37.2227C42.3354 37.1773 42.3748 37.1152 42.4082 37.0364C42.4445 36.9545 42.4733 36.8515 42.4945 36.7273C42.5188 36.6 42.5309 36.4455 42.5309 36.2636C42.5309 36.2303 42.5279 36.1773 42.5218 36.1045C42.5157 36.0318 42.5021 35.9515 42.4809 35.8636C42.4597 35.7727 42.4279 35.6803 42.3854 35.5864C42.346 35.4924 42.2915 35.4061 42.2218 35.3273C42.1521 35.2485 42.0673 35.1848 41.9673 35.1364C41.8673 35.0848 41.746 35.0591 41.6036 35.0591C41.4703 35.0591 41.3567 35.0833 41.2627 35.1318C41.1718 35.1773 41.0945 35.2409 41.0309 35.3227C40.9673 35.4045 40.9142 35.5015 40.8718 35.6136C40.8294 35.7227 40.79 35.8424 40.7536 35.9727C40.7173 36.1 40.6809 36.2348 40.6445 36.3773C40.6082 36.5167 40.5657 36.6561 40.5173 36.7955C40.6748 36.8742 40.8203 36.9485 40.9536 37.0182C41.087 37.0879 41.2112 37.1485 41.3263 37.2C41.4415 37.2485 41.5491 37.2879 41.6491 37.3182C41.7521 37.3455 41.8521 37.3591 41.9491 37.3591ZM41.6036 34.2045C41.9006 34.2045 42.1582 34.2621 42.3763 34.3773C42.5976 34.4894 42.7809 34.6409 42.9263 34.8318C43.0718 35.0227 43.1794 35.2424 43.2491 35.4909C43.3218 35.7394 43.3582 35.997 43.3582 36.2636C43.3582 36.5576 43.3324 36.8106 43.2809 37.0227C43.2324 37.2348 43.1673 37.4136 43.0854 37.5591C43.0036 37.7015 42.9112 37.8167 42.8082 37.9045C42.7082 37.9924 42.6051 38.0591 42.4991 38.1045C42.396 38.15 42.296 38.1803 42.1991 38.1955C42.1021 38.2106 42.0188 38.2182 41.9491 38.2182C41.8006 38.2182 41.6582 38.203 41.5218 38.1727C41.3854 38.1424 41.246 38.0985 41.1036 38.0409C40.9612 37.9864 40.8112 37.9182 40.6536 37.8364C40.4991 37.7545 40.3279 37.6621 40.14 37.5591C39.8915 37.853 39.5718 38 39.1809 38H38.6582V37.1409H39.1809C39.296 37.1409 39.39 37.0985 39.4627 37.0136C39.5385 36.9288 39.6036 36.8182 39.6582 36.6818C39.7127 36.5455 39.7627 36.3894 39.8082 36.2136C39.8536 36.0379 39.9051 35.8576 39.9627 35.6727C40.0233 35.4879 40.0945 35.3076 40.1763 35.1318C40.2582 34.9561 40.3612 34.8 40.4854 34.6636C40.6127 34.5273 40.7657 34.4167 40.9445 34.3318C41.1263 34.247 41.346 34.2045 41.6036 34.2045ZM52.5189 38H52.4053C51.9204 38 51.4962 37.897 51.1325 37.6909C50.7719 37.4818 50.4946 37.1909 50.3007 36.8182C50.2037 36.9515 50.0871 37.0682 49.9507 37.1682C49.8174 37.2652 49.6659 37.3515 49.4962 37.4273C49.3992 37.4667 49.2871 37.4985 49.1598 37.5227C49.0325 37.547 48.8977 37.5591 48.7553 37.5591C48.6128 37.5591 48.4659 37.5424 48.3143 37.5091C48.1659 37.4758 48.0204 37.4197 47.878 37.3409C47.6598 37.2258 47.484 37.0742 47.3507 36.8864C47.2204 36.6955 47.134 36.4712 47.0916 36.2136C47.0704 36.0955 47.0598 35.9788 47.0598 35.8636C47.0598 35.6697 47.0977 35.453 47.1734 35.2136C47.2522 34.9742 47.4098 34.7318 47.6462 34.4864C48.0613 34.0621 48.6477 33.7379 49.4053 33.5136L49.3189 33.0227L50.1553 32.8455C50.228 33.1485 50.2916 33.4182 50.3462 33.6545C50.4007 33.8879 50.4492 34.0985 50.4916 34.2864C50.5007 34.3227 50.5143 34.3833 50.5325 34.4682C50.5537 34.553 50.578 34.6515 50.6053 34.7636C50.6325 34.8727 50.6613 34.9909 50.6916 35.1182C50.7219 35.2455 50.7522 35.3697 50.7825 35.4909C50.8128 35.6121 50.8416 35.7258 50.8689 35.8318C50.8962 35.9379 50.9204 36.0258 50.9416 36.0955C51.0022 36.3227 51.0916 36.5061 51.2098 36.6455C51.328 36.7818 51.4568 36.8879 51.5962 36.9636C51.7356 37.0364 51.8765 37.0848 52.0189 37.1091C52.1643 37.1303 52.2931 37.1409 52.4053 37.1409H52.5189V38ZM49.6325 34.3409C49.3325 34.4288 49.0674 34.5333 48.8371 34.6545C48.6068 34.7758 48.4159 34.9106 48.2643 35.0591C48.1159 35.2045 48.0098 35.3621 47.9462 35.5318C47.9037 35.6439 47.8825 35.7591 47.8825 35.8773C47.8825 35.9379 47.8886 36 47.9007 36.0636C47.9219 36.1909 47.9674 36.2985 48.0371 36.3864C48.1068 36.4712 48.1886 36.5394 48.2825 36.5909C48.3492 36.6303 48.4219 36.6591 48.5007 36.6773C48.5795 36.6924 48.6583 36.7 48.7371 36.7H48.7825C48.8462 36.7 48.9113 36.6955 48.978 36.6864C49.0446 36.6742 49.1068 36.6561 49.1643 36.6318C49.5462 36.4742 49.7689 36.1879 49.8325 35.7727C49.8446 35.6758 49.8507 35.5848 49.8507 35.5C49.8507 35.4545 49.8462 35.3909 49.8371 35.3091C49.828 35.2273 49.8189 35.1652 49.8098 35.1227L49.6325 34.3409ZM55.2947 34.3C55.3008 34.3182 55.3129 34.3667 55.3311 34.4455C55.3493 34.5242 55.369 34.6227 55.3902 34.7409C55.4144 34.8561 55.4402 34.9848 55.4675 35.1273C55.4947 35.2667 55.519 35.4091 55.5402 35.5545C55.5614 35.697 55.5796 35.8348 55.5947 35.9682C55.6099 36.1015 55.6175 36.2182 55.6175 36.3182C55.6175 36.6091 55.569 36.8606 55.472 37.0727C55.3781 37.2818 55.2538 37.4561 55.0993 37.5955C54.9478 37.7318 54.7766 37.8333 54.5857 37.9C54.3947 37.9667 54.2023 38 54.0084 38H52.1266V37.1409H54.0084C54.0538 37.1409 54.1175 37.1348 54.1993 37.1227C54.2841 37.1076 54.3675 37.0727 54.4493 37.0182C54.5341 36.9636 54.6069 36.8818 54.6675 36.7727C54.7311 36.6636 54.7629 36.5121 54.7629 36.3182C54.7629 36.2515 54.7569 36.1682 54.7447 36.0682C54.7357 35.9652 54.722 35.8561 54.7038 35.7409C54.6887 35.6227 54.6705 35.503 54.6493 35.3818C54.6281 35.2576 54.6069 35.1409 54.5857 35.0318C54.5644 34.9227 54.5447 34.8258 54.5266 34.7409C54.5084 34.6561 54.4932 34.5924 54.4811 34.55L55.2947 34.3ZM55.6766 39.7318L54.9402 40.4682L54.2311 39.7318L54.9493 39.0045L55.6766 39.7318ZM53.9357 39.7409L53.1993 40.4773L52.4902 39.7409L53.2084 39.0136L53.9357 39.7409ZM58.8823 38C58.5641 37.997 58.3005 37.9758 58.0914 37.9364C57.8853 37.8939 57.7096 37.8348 57.5641 37.7591C57.4217 37.6803 57.3066 37.5833 57.2187 37.4682C57.1338 37.35 57.0672 37.2136 57.0187 37.0591C56.9702 36.9015 56.9384 36.7258 56.9232 36.5318C56.9081 36.3379 56.9005 36.1227 56.9005 35.8864V31.5136H57.7596V35.8864C57.7596 36.15 57.7672 36.3636 57.7823 36.5273C57.8005 36.6909 57.8444 36.8182 57.9141 36.9091C57.9869 36.997 58.0944 37.0576 58.2369 37.0909C58.3823 37.1212 58.5975 37.1379 58.8823 37.1409V38ZM61.7987 37.3591C61.8199 37.3591 61.8487 37.3576 61.885 37.3545C61.9244 37.3515 61.9654 37.3394 62.0078 37.3182C62.0532 37.297 62.0972 37.2652 62.1396 37.2227C62.185 37.1773 62.2244 37.1152 62.2578 37.0364C62.2941 36.9545 62.3229 36.8515 62.3441 36.7273C62.3684 36.6 62.3805 36.4455 62.3805 36.2636C62.3805 36.2303 62.3775 36.1773 62.3714 36.1045C62.3654 36.0318 62.3517 35.9515 62.3305 35.8636C62.3093 35.7727 62.2775 35.6803 62.235 35.5864C62.1957 35.4924 62.1411 35.4061 62.0714 35.3273C62.0017 35.2485 61.9169 35.1848 61.8169 35.1364C61.7169 35.0848 61.5957 35.0591 61.4532 35.0591C61.3199 35.0591 61.2063 35.0833 61.1123 35.1318C61.0214 35.1773 60.9441 35.2409 60.8805 35.3227C60.8169 35.4045 60.7638 35.5015 60.7214 35.6136C60.679 35.7227 60.6396 35.8424 60.6032 35.9727C60.5669 36.1 60.5305 36.2348 60.4941 36.3773C60.4578 36.5167 60.4154 36.6561 60.3669 36.7955C60.5244 36.8742 60.6699 36.9485 60.8032 37.0182C60.9366 37.0879 61.0608 37.1485 61.176 37.2C61.2911 37.2485 61.3987 37.2879 61.4987 37.3182C61.6017 37.3455 61.7017 37.3591 61.7987 37.3591ZM61.4532 34.2045C61.7502 34.2045 62.0078 34.2621 62.226 34.3773C62.4472 34.4894 62.6305 34.6409 62.776 34.8318C62.9214 35.0227 63.029 35.2424 63.0987 35.4909C63.1714 35.7394 63.2078 35.997 63.2078 36.2636C63.2078 36.5576 63.182 36.8106 63.1305 37.0227C63.082 37.2348 63.0169 37.4136 62.935 37.5591C62.8532 37.7015 62.7608 37.8167 62.6578 37.9045C62.5578 37.9924 62.4547 38.0591 62.3487 38.1045C62.2457 38.15 62.1457 38.1803 62.0487 38.1955C61.9517 38.2106 61.8684 38.2182 61.7987 38.2182C61.6502 38.2182 61.5078 38.203 61.3714 38.1727C61.235 38.1424 61.0957 38.0985 60.9532 38.0409C60.8108 37.9864 60.6608 37.9182 60.5032 37.8364C60.3487 37.7545 60.1775 37.6621 59.9896 37.5591C59.7411 37.853 59.4214 38 59.0305 38H58.5078V37.1409H59.0305C59.1457 37.1409 59.2396 37.0985 59.3123 37.0136C59.3881 36.9288 59.4532 36.8182 59.5078 36.6818C59.5623 36.5455 59.6123 36.3894 59.6578 36.2136C59.7032 36.0379 59.7547 35.8576 59.8123 35.6727C59.8729 35.4879 59.9441 35.3076 60.026 35.1318C60.1078 34.9561 60.2108 34.8 60.335 34.6636C60.4623 34.5273 60.6154 34.4167 60.7941 34.3318C60.976 34.247 61.1957 34.2045 61.4532 34.2045ZM67.0542 38H66.8587C66.5678 38 66.2996 37.9424 66.0542 37.8273C66.0542 38.2515 65.9951 38.6303 65.8769 38.9636C65.7587 39.297 65.586 39.5788 65.3587 39.8091C65.1314 40.0424 64.8511 40.2197 64.5178 40.3409C64.1875 40.4621 63.8072 40.5227 63.3769 40.5227H62.7496V39.6636H63.3769C63.689 39.6636 63.9587 39.6258 64.186 39.55C64.4163 39.4773 64.6057 39.3636 64.7542 39.2091C64.9057 39.0545 65.0163 38.8576 65.086 38.6182C65.1587 38.3788 65.1951 38.0939 65.1951 37.7636V34.9273H66.0542V36.4318C66.0542 36.6015 66.089 36.7348 66.1587 36.8318C66.2314 36.9258 66.3148 36.9955 66.4087 37.0409C66.5026 37.0864 66.592 37.1152 66.6769 37.1273C66.7648 37.1364 66.8254 37.1409 66.8587 37.1409H67.0542V38ZM70.2131 37.9909C69.9283 37.9909 69.6753 37.95 69.454 37.8682C69.2328 37.7833 69.0465 37.6621 68.895 37.5045C68.7374 37.6742 68.554 37.8 68.345 37.8818C68.1359 37.9606 67.9253 38 67.7131 38H66.6677V37.1409H67.7131C67.7586 37.1409 67.8237 37.1348 67.9086 37.1227C67.9934 37.1076 68.0768 37.0727 68.1586 37.0182C68.2404 36.9606 68.3116 36.8758 68.3722 36.7636C68.4359 36.6515 68.4677 36.4985 68.4677 36.3045V34.9273H69.3268V36.2864C69.3268 36.5803 69.395 36.7955 69.5313 36.9318C69.6707 37.0682 69.898 37.1364 70.2131 37.1364C70.2586 37.1364 70.3222 37.1288 70.404 37.1136C70.4889 37.0955 70.5722 37.0576 70.654 37C70.7389 36.9424 70.8116 36.8576 70.8722 36.7455C70.9359 36.6333 70.9677 36.4803 70.9677 36.2864V34.9273H71.8222V36.2864C71.8222 36.5803 71.8934 36.797 72.0359 36.9364C72.1783 37.0758 72.4071 37.1455 72.7222 37.1455C72.7707 37.1455 72.8359 37.1364 72.9177 37.1182C72.9995 37.097 73.0798 37.0561 73.1586 36.9955C73.2404 36.9348 73.3101 36.8485 73.3677 36.7364C73.4253 36.6242 73.454 36.4742 73.454 36.2864C73.454 36.2197 73.448 36.1364 73.4359 36.0364C73.4268 35.9364 73.4131 35.8288 73.395 35.7136C73.3798 35.5985 73.3616 35.4818 73.3404 35.3636C73.3192 35.2424 73.298 35.1303 73.2768 35.0273C73.2556 34.9212 73.2359 34.8273 73.2177 34.7455C73.1995 34.6606 73.1843 34.5985 73.1722 34.5591L73.9859 34.3C73.9919 34.3182 74.004 34.3667 74.0222 34.4455C74.0404 34.5212 74.0616 34.6167 74.0859 34.7318C74.1101 34.8439 74.1343 34.9697 74.1586 35.1091C74.1859 35.2485 74.2101 35.3894 74.2313 35.5318C74.2556 35.6712 74.2753 35.8076 74.2904 35.9409C74.3056 36.0712 74.3131 36.1864 74.3131 36.2864C74.3131 36.5742 74.2662 36.8258 74.1722 37.0409C74.0783 37.253 73.9556 37.4303 73.804 37.5727C73.6556 37.7121 73.4859 37.8182 73.295 37.8909C73.104 37.9606 72.9131 37.997 72.7222 38C72.4313 38 72.1737 37.9576 71.9495 37.8727C71.7283 37.7848 71.5404 37.6591 71.3859 37.4955C71.2283 37.6621 71.045 37.7864 70.8359 37.8682C70.6298 37.95 70.4222 37.9909 70.2131 37.9909ZM77.54 40.5182C77.0703 40.5182 76.6445 40.4152 76.2627 40.2091C75.8809 40.0061 75.5718 39.7152 75.3354 39.3364C75.1718 39.0788 75.0551 38.7924 74.9854 38.4773C74.9309 38.2348 74.9036 37.9803 74.9036 37.7136C74.9036 37.6348 74.9097 37.4864 74.9218 37.2682C74.9339 37.047 74.996 36.7409 75.1082 36.35C75.2203 35.9561 75.3763 35.55 75.5763 35.1318L76.3491 35.5C76.1794 35.8515 76.0445 36.1894 75.9445 36.5136C75.8476 36.8348 75.787 37.1394 75.7627 37.4273C75.7566 37.5242 75.7536 37.6182 75.7536 37.7091C75.7536 37.8909 75.7733 38.0833 75.8127 38.2864C75.8521 38.4924 75.9339 38.6924 76.0582 38.8864C76.2157 39.1318 76.4218 39.3212 76.6763 39.4545C76.9309 39.5909 77.2188 39.6591 77.54 39.6591H78.6082C78.9566 39.6591 79.24 39.6212 79.4582 39.5455C79.6794 39.4727 79.8506 39.3697 79.9718 39.2364C80.096 39.103 80.1794 38.9409 80.2218 38.75C80.2673 38.5621 80.29 38.353 80.29 38.1227V34.9273H81.1491V36.3409C81.1521 36.4621 81.1733 36.5727 81.2127 36.6727C81.2551 36.7697 81.3112 36.853 81.3809 36.9227C81.4506 36.9924 81.5339 37.047 81.6309 37.0864C81.7309 37.1227 81.8415 37.1409 81.9627 37.1409H82.14V38H81.9627C81.6657 38 81.3945 37.9348 81.1491 37.8045V38.1227C81.1491 38.9227 80.937 39.5212 80.5127 39.9182C80.0885 40.3182 79.4536 40.5182 78.6082 40.5182H77.54ZM77.5718 34.5864L78.3445 33.8045L79.1354 34.5955L78.3536 35.3773L77.5718 34.5864ZM86.7247 37.1409V38H85.9292C85.6535 38 85.4095 37.9606 85.1974 37.8818C84.9883 37.803 84.8201 37.6848 84.6929 37.5273C84.3777 37.8424 83.911 38 83.2929 38H81.7474V37.1409H83.2929C83.511 37.1409 83.6838 37.1197 83.811 37.0773C83.9383 37.0318 84.0338 36.9773 84.0974 36.9136C84.1641 36.847 84.2065 36.7742 84.2247 36.6955C84.2459 36.6136 84.2565 36.5364 84.2565 36.4636V34.9273H85.111V36.4318C85.111 36.5439 85.1277 36.6394 85.161 36.7182C85.1974 36.797 85.2413 36.8636 85.2929 36.9182C85.3444 36.9697 85.402 37.0106 85.4656 37.0409C85.5323 37.0712 85.5959 37.0939 85.6565 37.1091C85.7171 37.1242 85.7716 37.1333 85.8201 37.1364C85.8686 37.1394 85.905 37.1409 85.9292 37.1409H86.7247ZM85.4701 39.7591L84.7338 40.4955L84.0247 39.7591L84.7429 39.0318L85.4701 39.7591ZM83.7292 39.7682L82.9929 40.5045L82.2838 39.7682L83.002 39.0409L83.7292 39.7682ZM89.6221 37.3591C89.6433 37.3591 89.6721 37.3576 89.7085 37.3545C89.7479 37.3515 89.7888 37.3394 89.8312 37.3182C89.8767 37.297 89.9206 37.2652 89.963 37.2227C90.0085 37.1773 90.0479 37.1152 90.0812 37.0364C90.1176 36.9545 90.1464 36.8515 90.1676 36.7273C90.1918 36.6 90.2039 36.4455 90.2039 36.2636C90.2039 36.2303 90.2009 36.1773 90.1949 36.1045C90.1888 36.0318 90.1752 35.9515 90.1539 35.8636C90.1327 35.7727 90.1009 35.6803 90.0585 35.5864C90.0191 35.4924 89.9645 35.4061 89.8949 35.3273C89.8252 35.2485 89.7403 35.1848 89.6403 35.1364C89.5403 35.0848 89.4191 35.0591 89.2767 35.0591C89.1433 35.0591 89.0297 35.0833 88.9358 35.1318C88.8449 35.1773 88.7676 35.2409 88.7039 35.3227C88.6403 35.4045 88.5873 35.5015 88.5449 35.6136C88.5024 35.7227 88.463 35.8424 88.4267 35.9727C88.3903 36.1 88.3539 36.2348 88.3176 36.3773C88.2812 36.5167 88.2388 36.6561 88.1903 36.7955C88.3479 36.8742 88.4933 36.9485 88.6267 37.0182C88.76 37.0879 88.8842 37.1485 88.9994 37.2C89.1145 37.2485 89.2221 37.2879 89.3221 37.3182C89.4252 37.3455 89.5252 37.3591 89.6221 37.3591ZM89.2767 34.2045C89.5736 34.2045 89.8312 34.2621 90.0494 34.3773C90.2706 34.4894 90.4539 34.6409 90.5994 34.8318C90.7449 35.0227 90.8524 35.2424 90.9221 35.4909C90.9949 35.7394 91.0312 35.997 91.0312 36.2636C91.0312 36.5576 91.0055 36.8106 90.9539 37.0227C90.9055 37.2348 90.8403 37.4136 90.7585 37.5591C90.6767 37.7015 90.5842 37.8167 90.4812 37.9045C90.3812 37.9924 90.2782 38.0591 90.1721 38.1045C90.0691 38.15 89.9691 38.1803 89.8721 38.1955C89.7752 38.2106 89.6918 38.2182 89.6221 38.2182C89.4736 38.2182 89.3312 38.203 89.1949 38.1727C89.0585 38.1424 88.9191 38.0985 88.7767 38.0409C88.6342 37.9864 88.4842 37.9182 88.3267 37.8364C88.1721 37.7545 88.0009 37.6621 87.813 37.5591C87.5645 37.853 87.2449 38 86.8539 38H86.3312V37.1409H86.8539C86.9691 37.1409 87.063 37.0985 87.1358 37.0136C87.2115 36.9288 87.2767 36.8182 87.3312 36.6818C87.3858 36.5455 87.4358 36.3894 87.4812 36.2136C87.5267 36.0379 87.5782 35.8576 87.6358 35.6727C87.6964 35.4879 87.7676 35.3076 87.8494 35.1318C87.9312 34.9561 88.0342 34.8 88.1585 34.6636C88.2858 34.5273 88.4388 34.4167 88.6176 34.3318C88.7994 34.247 89.0191 34.2045 89.2767 34.2045ZM94.3233 38C94.0051 37.997 93.7415 37.9758 93.5324 37.9364C93.3264 37.8939 93.1506 37.8348 93.0051 37.7591C92.8627 37.6803 92.7476 37.5833 92.6597 37.4682C92.5748 37.35 92.5082 37.2136 92.4597 37.0591C92.4112 36.9015 92.3794 36.7258 92.3642 36.5318C92.3491 36.3379 92.3415 36.1227 92.3415 35.8864V31.5136H93.2006V35.8864C93.2006 36.15 93.2082 36.3636 93.2233 36.5273C93.2415 36.6909 93.2854 36.8182 93.3551 36.9091C93.4279 36.997 93.5354 37.0576 93.6779 37.0909C93.8233 37.1212 94.0385 37.1379 94.3233 37.1409V38ZM97.1033 34.3C97.1094 34.3182 97.1215 34.3667 97.1397 34.4455C97.1579 34.5242 97.1776 34.6227 97.1988 34.7409C97.223 34.8561 97.2488 34.9848 97.2761 35.1273C97.3033 35.2667 97.3276 35.4091 97.3488 35.5545C97.37 35.697 97.3882 35.8348 97.4033 35.9682C97.4185 36.1015 97.4261 36.2182 97.4261 36.3182C97.4261 36.6091 97.3776 36.8606 97.2806 37.0727C97.1867 37.2818 97.0624 37.4561 96.9079 37.5955C96.7564 37.7318 96.5852 37.8333 96.3942 37.9C96.2033 37.9667 96.0109 38 95.817 38H93.9352V37.1409H95.817C95.8624 37.1409 95.9261 37.1348 96.0079 37.1227C96.0927 37.1076 96.1761 37.0727 96.2579 37.0182C96.3427 36.9636 96.4155 36.8818 96.4761 36.7727C96.5397 36.6636 96.5715 36.5121 96.5715 36.3182C96.5715 36.2515 96.5655 36.1682 96.5533 36.0682C96.5442 35.9652 96.5306 35.8561 96.5124 35.7409C96.4973 35.6227 96.4791 35.503 96.4579 35.3818C96.4367 35.2576 96.4155 35.1409 96.3942 35.0318C96.373 34.9227 96.3533 34.8258 96.3352 34.7409C96.317 34.6561 96.3018 34.5924 96.2897 34.55L97.1033 34.3ZM97.0215 33.3364L96.3033 32.6091L97.0124 31.8727L97.7488 32.6091L97.0215 33.3364ZM95.2806 33.3273L94.5624 32.6L95.2715 31.8636L96.0079 32.6L95.2806 33.3273Z" fill="#C2C5C8"></path>
    <path d="M132.515 5.37881C131.575 6.45857 130.847 7.72829 130.4 9.12298C129.588 8.3469 128.491 7.8695 127.284 7.8695C124.797 7.8695 122.774 9.89905 122.774 12.391V21.8701L118.549 23.7347V12.391C118.549 8.29316 121.372 4.84268 125.171 3.89164V2.17827L129.397 0.00125122V3.89164C130.542 4.17782 131.597 4.69021 132.515 5.37881Z" fill="#C2C5C8"></path>
    <path d="M145.761 5.38131C144.821 6.45982 144.093 7.73078 143.646 9.12547C142.836 8.3469 141.738 7.8695 140.53 7.8695C139.323 7.8695 138.225 8.3469 137.415 9.12547C136.556 9.94779 136.021 11.11 136.021 12.391V16.0252L131.795 17.8898V12.391C131.795 10.214 132.592 8.22067 133.908 6.68602C134.323 6.20237 134.79 5.76497 135.3 5.38005C136.217 4.69146 137.273 4.17782 138.417 3.89164V2.17827L142.644 0.00125122V3.89164C143.788 4.17782 144.844 4.69021 145.761 5.38131Z" fill="#C2C5C8"></path>
    <path d="M162.512 22.6525V32.2816C162.512 36.3807 159.689 39.8299 155.889 40.7809V42.823L151.664 45V40.7809C150.518 40.496 149.461 39.9824 148.544 39.2925C148.034 38.9089 147.567 38.4702 147.153 37.9866C146.738 38.4702 146.271 38.9089 145.761 39.2925C144.844 39.9811 143.788 40.4948 142.643 40.7809V42.823L138.416 45V40.7809C137.272 40.4948 136.216 39.9811 135.299 39.2925C134.789 38.9089 134.322 38.4714 133.907 37.9866C133.492 38.4714 133.024 38.9089 132.515 39.2925C131.597 39.9811 130.542 40.4948 129.397 40.7809V42.823L125.171 45V40.7809C121.371 39.8311 118.549 36.3807 118.549 32.2816V30.4532L122.774 28.5874V32.2816C122.774 34.7735 124.797 36.8031 127.284 36.8031C128.491 36.8031 129.589 36.3257 130.4 35.5483C131.258 34.7248 131.794 33.565 131.794 32.2816V24.9495L136.019 28.9298V32.2816C136.019 33.565 136.555 34.7248 137.414 35.5483C138.224 36.3257 139.322 36.8031 140.529 36.8031C141.736 36.8031 142.836 36.3257 143.645 35.5483C144.503 34.7248 145.041 33.565 145.041 32.2816V30.297L149.266 28.4487V32.2816C149.266 33.565 149.802 34.7248 150.66 35.5483C151.472 36.3257 152.569 36.8031 153.776 36.8031C156.261 36.8031 158.286 34.7735 158.286 32.2816V24.5008L162.512 22.6525Z" fill="white"></path>
    <path d="M136.019 26.4991V28.9298L131.794 24.9494V22.5187L136.019 26.4991Z" fill="#C2C5C8"></path>
    <path d="M136.019 16.0252V26.4991L131.794 22.5188L118.487 28.3912H108L108.06 28.365L136.019 16.0252Z" fill="white"></path>
    <path d="M149.266 26.5154V28.4487L145.041 30.297V28.3649L149.266 26.5154Z" fill="#C2C5C8"></path>
    <path d="M162.512 20.7242V22.6525L158.286 24.5008V22.5687L162.131 20.8854L162.512 20.7242Z" fill="#C2C5C8"></path>
    <path d="M149.266 21.8701V16.0252L140.53 24.5083L145.04 22.5187V28.3649L165.325 19.4882V23.2373L173 11.3937L149.266 21.8701Z" fill="white"></path>
    <path d="M162.512 12.3897V16.0227L158.286 17.8885V12.3897C158.286 9.89655 156.261 7.86825 153.776 7.86825C152.569 7.86825 151.472 8.34564 150.66 9.12172C149.802 9.94654 149.266 11.1063 149.266 12.3897V16.0239L145.041 20.128V12.3897C145.041 10.2127 145.837 8.21942 147.153 6.68476C147.568 6.20112 148.036 5.76372 148.545 5.38005C149.463 4.69021 150.52 4.17657 151.664 3.89039V2.17702L155.889 0V3.89039C159.688 4.84142 162.512 8.29191 162.512 12.3897Z" fill="#C2C5C8"></path>
    <path d="M19.0488 17.3995H21.6202L21.26 19.2506L18.5339 20.0454L19.0488 17.3995ZM48.2037 5.13508H45.6323L45.1174 7.78098L47.8435 6.98618L48.2037 5.13508ZM95.4415 8.83626L94.5644 13.3035C94.5215 13.525 94.279 13.7342 94.0665 13.7342H87.2722C87.2173 13.7342 87.1425 13.7219 87.0936 13.6594C87.0657 13.6255 87.0497 13.5804 87.0487 13.5271L87.9687 8.83523H85.7275H85.3863H84.7247L83.4634 11.4637H84.8754L84.5042 13.3312C84.4872 13.4153 84.4753 13.4984 84.4663 13.5804L83.9214 16.3791C83.8765 16.6088 83.644 16.8098 83.4235 16.8098H80.7164L79.4561 19.425H83.0962C84.6429 19.425 86.1516 18.1359 86.46 16.5494L86.5039 16.3237C86.6206 16.3401 86.7384 16.3483 86.8601 16.3483H93.7252C95.2719 16.3483 96.7806 15.0572 97.089 13.4717L98 8.83523H95.4415V8.83626ZM81.7661 13.4635L82.4766 9.8136H77.3986L77.656 12.4431H79.3933L79.2276 13.2943C79.1827 13.524 78.9502 13.725 78.7297 13.725H75.5266C75.4518 13.725 75.3909 13.6983 75.351 13.6471C75.3081 13.5927 75.2931 13.5179 75.3091 13.4338L76.7919 5.81604H74.2344L72.7736 13.3209C72.6169 14.126 72.7835 14.888 73.2445 15.4643C73.6936 16.0273 74.3631 16.3381 75.1305 16.3381H78.4034C79.948 16.3401 81.4568 15.049 81.7661 13.4635ZM63.5356 19.788L65.9044 20.832L66.0611 20.028H69.0666L70.3478 17.3985H64.0015L63.5356 19.788ZM14.6852 5.39249L12.3164 4.34849L12.1597 5.15251H9.1542L7.87297 7.782H14.2192L14.6852 5.39249ZM57.0356 4.04698L56.7582 5.47146H51.6433L51.8897 8.09992H58.8178L59.4554 4.82126L57.0356 4.04698ZM21.6571 13.2471C21.6132 13.4686 21.3718 13.6778 21.1592 13.6778H18.7884C18.7335 13.6778 18.6576 13.6655 18.6097 13.604C18.5818 13.5691 18.5658 13.524 18.5648 13.4707L19.4649 8.83523H17.2237H16.8825H16.2209L14.9586 11.4637H16.3706L16.0203 13.2748C16.0044 13.3579 15.9914 13.4389 15.9834 13.5209L15.4376 16.3237C15.3927 16.5524 15.1612 16.7545 14.9397 16.7545H12.2335L10.9733 19.3696H14.6134C16.159 19.3696 17.6688 18.0784 17.9771 16.4929L18.021 16.2673C18.1378 16.2837 18.2555 16.2919 18.3772 16.2919H20.817C22.3636 16.2919 23.8734 15.0008 24.1817 13.4153L25.0508 8.83523H22.4933L21.6571 13.2471ZM13.2074 13.4163L14.0935 8.83626H11.536L10.6829 13.2471C10.639 13.4686 10.3975 13.6778 10.185 13.6778H7.8131C7.75921 13.6778 7.68338 13.6655 7.63548 13.604C7.60854 13.5691 7.59158 13.5261 7.58958 13.4748L8.48864 8.83523H6.24749H5.90622H5.24465L3.98238 11.4637H5.39433L5.04608 13.2748C5.03012 13.3579 5.01715 13.4389 5.00916 13.5209L4.46334 16.3237C4.41844 16.5524 4.18594 16.7545 3.96542 16.7545H1.26027L0 19.3696H3.63913C5.18578 19.3696 6.69552 18.0784 7.00385 16.4929L7.04775 16.2673C7.1645 16.2837 7.28225 16.2919 7.40299 16.2919H9.8437C11.3904 16.293 12.8991 15.0018 13.2074 13.4163ZM54.9611 8.83626H51.9736L52.231 11.4657H54.547C54.6039 11.4657 54.6817 11.478 54.7296 11.5386C54.7695 11.5888 54.7825 11.6667 54.7645 11.756L54.4682 13.2799C54.4223 13.5137 54.1948 13.7107 53.9702 13.7107H49.5219C49.5408 13.644 49.5578 13.5763 49.5728 13.5076L49.903 11.8093L49.904 11.8021C50.0437 11.0042 49.8671 10.2536 49.4081 9.68951C48.9601 9.13879 48.2955 8.83523 47.5372 8.83523H43.1976L43.455 11.4647H47.1231C47.1799 11.4647 47.2578 11.477 47.3057 11.5375C47.3456 11.5878 47.3585 11.6657 47.3406 11.7549L47.0442 13.2789C46.9983 13.5127 46.7708 13.7096 46.5463 13.7096H41.4962L41.9912 16.3391H46.217C46.9145 16.3391 47.599 16.0838 48.1698 15.6571L48.0371 16.3391H53.639C55.1796 16.3391 56.6524 15.0982 56.9947 13.5055L57.326 11.8021C57.4657 11.0042 57.2891 10.2536 56.8301 9.68951C56.383 9.13879 55.7195 8.83626 54.9611 8.83626ZM68.9219 13.2943C68.879 13.5148 68.6365 13.725 68.424 13.725H66.1619C66.107 13.725 66.0332 13.7117 65.9833 13.6512C65.9413 13.5978 65.9274 13.522 65.9443 13.4348L66.121 12.5292L66.114 12.5272L66.8244 8.83626H62.5736C61.034 8.83626 59.5602 10.0772 59.2179 11.6698L58.8866 13.3732C58.7469 14.1711 58.9235 14.9228 59.3815 15.4859C59.8296 16.0376 60.4951 16.3401 61.2535 16.3401H61.933L62.4329 13.7117H61.6676C61.6107 13.7117 61.5319 13.6994 61.485 13.6389C61.4451 13.5876 61.4321 13.5117 61.4491 13.4215L61.7454 11.8965C61.7913 11.6637 62.0198 11.4668 62.2433 11.4668H63.7541L63.3649 13.5076L63.318 13.7517C63.0626 15.0931 64.0614 16.3401 65.3915 16.3401H68.0827C69.6284 16.3401 71.1371 15.05 71.4464 13.4635L72.3545 8.83626H69.797L68.9219 13.2943ZM38.806 5.96577L40.8237 16.3391H38.2143L36.8832 9.49465L31.1346 20.0516L29.5281 23L28.3048 19.8639L25.884 13.6584L26.789 8.91317L29.9113 16.9155L36.1129 5.52889L38.0347 2L38.806 5.96577ZM39.3249 14.2203L37.7902 6.51546V6.51443C38.0128 6.38726 38.1634 6.14319 38.1634 5.86321C38.1634 5.45197 37.8381 5.11764 37.438 5.11764C37.0379 5.11764 36.7126 5.45197 36.7126 5.86321C36.7126 6.06217 36.7884 6.24369 36.9131 6.37701L29.8983 19.2106C29.8514 19.2004 29.8025 19.1952 29.7536 19.1952C29.7297 19.1952 29.7077 19.1963 29.6848 19.1993L27.6043 13.9322C27.7659 13.7947 27.8677 13.5886 27.8677 13.3579C27.8677 12.9466 27.5424 12.6123 27.1423 12.6123C26.7421 12.6123 26.4169 12.9466 26.4169 13.3579C26.4169 13.7691 26.7421 14.1034 27.1423 14.1034C27.1642 14.1034 27.1852 14.1024 27.2071 14.1004L29.2886 19.3696C29.13 19.507 29.0282 19.7121 29.0282 19.9408C29.0282 20.3521 29.3535 20.6864 29.7536 20.6864C30.1538 20.6864 30.4791 20.3521 30.4791 19.9408C30.4791 19.7398 30.4012 19.5573 30.2745 19.4239L37.2883 6.59237C37.3153 6.59853 37.3422 6.60365 37.3692 6.60468L38.9018 14.3075C38.6504 14.4419 38.4768 14.7126 38.4768 15.0244C38.4768 15.4695 38.829 15.8325 39.2631 15.8325C39.6971 15.8325 40.0504 15.4705 40.0504 15.0244C40.0504 14.6008 39.7301 14.2521 39.3249 14.2203ZM39.2641 15.3905C39.4606 15.3905 39.6213 15.2274 39.6213 15.0244C39.6213 15.011 39.6203 14.9977 39.6193 14.9854C39.6183 14.9751 39.6173 14.9659 39.6153 14.9567C39.6153 14.9546 39.6143 14.9516 39.6143 14.9485C39.6133 14.9403 39.6113 14.9321 39.6083 14.9239C39.6083 14.9228 39.6073 14.9208 39.6073 14.9198C39.6033 14.9044 39.5973 14.889 39.5914 14.8746C39.5904 14.8726 39.5894 14.8695 39.5874 14.8654C39.5834 14.8562 39.5784 14.8459 39.5724 14.8367C39.5724 14.8357 39.5714 14.8357 39.5714 14.8346C39.5684 14.8295 39.5654 14.8244 39.5614 14.8193C39.5564 14.81 39.5494 14.8018 39.5425 14.7936C39.5405 14.7895 39.5365 14.7854 39.5325 14.7813C39.5265 14.7721 39.5185 14.7649 39.5095 14.7567L39.5085 14.7557C39.4946 14.7423 39.4806 14.73 39.4646 14.7208C39.4566 14.7167 39.4507 14.7116 39.4427 14.7075C39.4367 14.7034 39.4287 14.6982 39.4207 14.6952C39.4117 14.6911 39.4028 14.6859 39.3928 14.6818C39.3918 14.6818 39.3908 14.6808 39.3898 14.6808C39.3888 14.6808 39.3868 14.6798 39.3858 14.6798C39.3768 14.6767 39.3678 14.6736 39.3589 14.6706C39.3479 14.6675 39.3369 14.6654 39.3269 14.6624C39.3189 14.6613 39.311 14.6603 39.302 14.6593C39.29 14.6583 39.278 14.6572 39.2651 14.6572C39.2311 14.6572 39.1982 14.6613 39.1673 14.6716C39.1563 14.6736 39.1473 14.6767 39.1373 14.6818C39.1214 14.688 39.1064 14.6952 39.0924 14.7044C39.0834 14.7085 39.0755 14.7147 39.0665 14.7208C39.0565 14.7259 39.0485 14.7341 39.0395 14.7413C39.0316 14.7465 39.0256 14.7536 39.0176 14.7598C39.0116 14.7659 39.0056 14.7731 38.9996 14.7803C38.9857 14.7967 38.9727 14.8141 38.9607 14.8336C38.9567 14.8398 38.9527 14.8469 38.9497 14.8531C38.9448 14.8623 38.9398 14.8705 38.9368 14.8798C38.9338 14.888 38.9308 14.8951 38.9278 14.9034C38.9188 14.929 38.9128 14.9567 38.9108 14.9854C38.9098 14.9977 38.9088 15.01 38.9088 15.0233C38.9078 15.2274 39.0675 15.3905 39.2641 15.3905ZM37.6116 5.61708C37.5637 5.58016 37.5029 5.55965 37.439 5.55965C37.4101 5.55965 37.3811 5.56375 37.3542 5.57196C37.2325 5.6099 37.1436 5.72579 37.1436 5.86321C37.1436 5.88988 37.1466 5.91552 37.1536 5.9391C37.1856 6.07037 37.3023 6.16677 37.44 6.16677C37.5478 6.16677 37.6426 6.10729 37.6935 6.0191C37.7204 5.97397 37.7354 5.92064 37.7354 5.86321C37.7334 5.76271 37.6855 5.67246 37.6116 5.61708ZM29.7536 19.6383C29.6259 19.6383 29.5152 19.7234 29.4742 19.8413C29.4633 19.8731 29.4583 19.907 29.4583 19.9418C29.4583 20.0608 29.5251 20.1644 29.6219 20.2136C29.6618 20.2331 29.7067 20.2454 29.7546 20.2454C29.7826 20.2454 29.8095 20.2413 29.8345 20.2341C29.9592 20.1993 30.051 20.0803 30.051 19.9408C30.051 19.9121 30.047 19.8844 30.04 19.8577C30.0031 19.7326 29.8883 19.6383 29.7536 19.6383ZM27.1423 13.0553C26.9786 13.0553 26.8469 13.1917 26.8469 13.3589C26.8469 13.483 26.9188 13.5896 27.0235 13.6358C27.0605 13.6532 27.0994 13.6625 27.1433 13.6625C27.27 13.6625 27.3788 13.5804 27.4197 13.4645C27.4327 13.4317 27.4386 13.3958 27.4386 13.3589C27.4376 13.1907 27.3049 13.0553 27.1423 13.0553ZM26.7621 8.91317V8.9142L26.816 8.91317H26.7621ZM56.395 5.09098L55.1607 3.51678H51.4517L51.6054 5.09098H56.395Z" fill="white"></path>
  </g>
  <defs>
    <clipPath id="clip0_1524_1007">
      <rect width="173" height="45" fill="white"></rect>
    </clipPath>
  </defs>
</svg>
