<?xml version="1.0" encoding="UTF-8"?>
<svg xmlns="http://www.w3.org/2000/svg" width="184" height="159" viewBox="0 0 184 159" fill="none">
  <path opacity="0.1" fill-rule="evenodd" clip-rule="evenodd" d="M124.157 0.104456C145.969 2.38581 163.859 12.5952 174.884 29.0534C186.488 46.3737 187.058 69.0072 176.34 86.8548C171.876 94.2895 166.712 99.9059 159.124 105.579L158.161 106.299L159.777 113.141C161.579 120.771 161.735 122.672 160.7 124.372C159.557 126.248 157.066 127.23 154.944 126.642C154.24 126.446 149.885 123.968 145.265 121.134L136.866 115.982L133.341 116.775C128.543 117.854 123.47 118.363 117.515 118.363H112.52L111.742 120.704C111.314 121.991 110.173 124.597 109.208 126.496C102.355 139.966 88.8934 150.429 73.148 154.523C62.8098 157.211 50.7267 157.159 40.6163 154.383C39.1574 153.983 37.6547 153.655 37.2769 153.655C36.899 153.655 33.3905 154.87 29.4799 156.356C20.8982 159.616 19.6617 159.725 17.3713 157.43C15.4565 155.511 15.4219 154.214 17.1366 148.579L18.6588 143.575L14.9109 139.843C7.27234 132.236 2.79147 124.117 0.670135 114.042C-0.223373 109.798 -0.223373 100.639 0.670135 96.3958C5.28093 74.4937 23.918 57.9872 48.0059 54.471C50.061 54.171 51.7879 53.8797 51.843 53.8235C51.8984 53.7673 52.2132 52.1011 52.5425 50.1204C53.2791 45.6913 55.4041 39.1605 57.4182 35.1351C66.4829 17.0186 84.3967 4.43886 106.344 0.77716C109.636 0.227977 121.173 -0.207768 124.157 0.104456ZM107.604 11.5347C98.3561 13.2366 91.4181 15.9825 84.2549 20.776C73.3352 28.0836 65.9585 38.6348 63.4979 50.4668C62.7638 53.9975 62.844 54.2463 64.7246 54.2564C66.6577 54.2668 73.0628 55.743 77.2997 57.1543C85.9872 60.0485 93.1562 64.482 99.7019 71.0073C105.641 76.9284 109.44 82.9532 111.926 90.3962C113.503 95.1177 114.261 99.5501 114.261 104.058V107.665L120.288 107.449C126.143 107.239 130.529 106.577 135.432 105.163C136.507 104.854 137.863 104.706 138.511 104.827C139.149 104.947 141.415 106.11 143.549 107.413C145.682 108.715 147.508 109.699 147.608 109.599C147.708 109.5 147.515 108.185 147.18 106.679C146.825 105.083 146.668 103.421 146.803 102.699C147.084 101.2 148.369 99.6005 150.171 98.5068C154.515 95.87 160.589 90.4131 163.724 86.3322C177.488 68.412 176.107 44.3913 160.38 28.2068C150.757 18.3035 138.906 12.7252 123.617 10.9026C121.071 10.5994 110.397 11.0204 107.604 11.5347ZM46.6086 65.6048C36.9303 67.7735 29.3004 71.7348 22.7636 77.9839C12.5356 87.763 8.51241 101.051 11.8342 114.085C13.9717 122.471 18.8531 129.678 26.3791 135.559C30.2137 138.555 31.1389 140.539 30.0453 143.418C29.8419 143.954 29.7358 144.452 29.8099 144.527C29.884 144.601 31.0626 144.234 32.4289 143.711C36.7083 142.075 36.8749 142.069 41.4324 143.411C56.8014 147.937 72.6227 145.782 85.2143 137.448C93.5826 131.909 99.4759 124.129 102.262 114.942C103.166 111.959 103.246 111.199 103.265 105.399C103.283 99.8854 103.181 98.7135 102.45 96.0357C98.0131 79.7705 83.134 67.8271 63.7016 64.9325C61.1218 64.5482 49.238 65.0157 46.6086 65.6048Z" fill="#0098FF"></path>
</svg>
