<?xml version="1.0" encoding="UTF-8"?>
<svg xmlns="http://www.w3.org/2000/svg" width="20" height="16" viewBox="0 0 20 16" fill="none">
  <path fill-rule="evenodd" clip-rule="evenodd" d="M18.2431 0.0472939C18.1355 0.0761375 16.6653 0.598244 14.976 1.20758C13.2867 1.81692 9.4484 3.20109 6.44641 4.2835C3.44442 5.36587 0.876428 6.30277 0.739798 6.36549C0.469472 6.48955 0.1914 6.72112 0.0897879 6.90682C-0.0113935 7.09172 -0.0286875 7.35346 0.0462009 7.56653C0.126958 7.79635 0.423499 8.07407 0.733929 8.21063C0.852287 8.2627 1.77098 8.52787 2.77544 8.79993L4.60171 9.29452L5.58622 11.957C6.23638 13.7154 6.61661 14.6912 6.70594 14.8305C6.87231 15.09 7.14013 15.32 7.42458 15.4475C7.61215 15.5317 7.68997 15.544 8.03104 15.5438C8.35798 15.5436 8.45603 15.5291 8.62745 15.4561C8.94989 15.3188 9.10483 15.1988 10.2813 14.1758C10.8895 13.647 11.4011 13.2144 11.4183 13.2144C11.4355 13.2144 12.1592 13.7548 13.0265 14.4154C13.8938 15.0759 14.6891 15.6709 14.7938 15.7375C15.2204 16.0088 15.8553 16.0801 16.2757 15.904C16.6259 15.7572 16.9646 15.3925 17.109 15.0066C17.143 14.9158 17.8078 11.8794 18.5862 8.25918C19.8726 2.27709 20.0015 1.6449 20 1.32562C19.9972 0.728151 19.7809 0.363501 19.2953 0.137597C18.9918 -0.00362614 18.5688 -0.0399396 18.2431 0.0472939ZM18.8026 1.14812C18.8284 1.17253 18.8495 1.24338 18.8495 1.30554C18.8495 1.49931 16.0329 14.5754 15.9623 14.7095C15.7805 15.0548 15.6874 15.0131 14.3186 13.9727C10.576 11.1282 9.67436 10.4341 9.67436 10.3974C9.67436 10.3749 11.0389 8.98737 12.7067 7.31393C14.3744 5.64048 15.7713 4.22463 15.8107 4.16757C15.9045 4.03193 15.9041 3.76376 15.8098 3.60852C15.7315 3.47943 15.4495 3.32249 15.2961 3.32249C15.1962 3.32249 14.7445 3.53704 8.80309 6.40683L4.99728 8.24506L3.23756 7.77139C2.26969 7.51088 1.47796 7.28941 1.47812 7.27924C1.47831 7.26907 2.60942 6.85391 3.99177 6.35661C5.37411 5.85936 7.30622 5.16326 8.28536 4.80975C9.26451 4.45623 10.6114 3.96999 11.2785 3.72922C12.6903 3.21969 18.4109 1.15984 18.4974 1.12989C18.6023 1.09361 18.7545 1.10271 18.8026 1.14812ZM12.3679 6.0312C11.5829 6.80521 8.31072 10.1124 8.26783 10.1752C8.23747 10.2197 8.03319 10.9466 7.81385 11.7907C7.59451 12.6347 7.404 13.3447 7.39046 13.3684C7.37696 13.3922 7.00909 12.4453 6.57299 11.2643C6.13688 10.0833 5.78474 9.11377 5.79046 9.10985C5.80986 9.09646 9.55189 7.29085 10.9655 6.61269C11.7402 6.24106 12.3908 5.92285 12.4113 5.90551C12.4317 5.8882 12.4662 5.87404 12.4879 5.87404C12.5096 5.87404 12.4556 5.94474 12.3679 6.0312ZM9.82159 11.9734C10.1818 12.2468 10.4751 12.4798 10.4734 12.4911C10.4689 12.5216 8.39762 14.3128 8.3831 14.2987C8.37626 14.2922 8.52693 13.6877 8.71791 12.9555C8.90889 12.2233 9.07521 11.5857 9.08754 11.5384C9.09982 11.4912 9.12267 11.4579 9.13832 11.4645C9.15394 11.471 9.46143 11.7 9.82159 11.9734Z" fill="#0098FF"></path>
</svg>
