<?xml version="1.0" encoding="UTF-8"?>
<svg xmlns="http://www.w3.org/2000/svg" width="183" height="159" viewBox="0 0 183 159" fill="none">
  <path opacity="0.1" fill-rule="evenodd" clip-rule="evenodd" d="M166.221 0.467557C165.194 0.754191 151.154 5.94262 135.021 11.9979C118.888 18.0533 82.2322 31.8084 53.5632 42.5648C24.8943 53.3209 0.36989 62.6314 -0.934927 63.2546C-3.51654 64.4875 -6.17213 66.7887 -7.14253 68.6341C-8.10881 70.4715 -8.27397 73.0726 -7.55878 75.19C-6.78755 77.4739 -3.95559 80.2336 -0.990976 81.5907C0.139342 82.1081 8.91286 84.7433 18.5054 87.4469L35.9463 92.3619L45.3484 118.821C51.5574 136.294 55.1887 145.991 56.0417 147.376C57.6305 149.954 60.1882 152.24 62.9047 153.507C64.696 154.343 65.4393 154.466 68.6964 154.464C71.8187 154.462 72.7551 154.318 74.3921 153.593C77.4714 152.228 78.9511 151.036 90.1867 140.87C95.9945 135.615 100.881 131.315 101.045 131.315C101.209 131.315 108.12 136.686 116.403 143.25C124.686 149.815 132.281 155.727 133.281 156.389C137.354 159.085 143.419 159.794 147.433 158.043C150.777 156.585 154.012 152.96 155.391 149.126C155.716 148.223 162.064 118.049 169.498 82.0732C181.783 22.6262 183.014 16.3437 183 13.1709C182.973 7.23358 180.907 3.60987 176.27 1.36494C173.371 -0.0384609 169.332 -0.399326 166.221 0.467557ZM171.565 11.407C171.811 11.6496 172.013 12.3537 172.013 12.9714C172.013 14.897 145.115 144.84 144.44 146.173C142.703 149.604 141.814 149.19 128.742 138.852C93.0004 110.584 84.3901 103.686 84.3901 103.322C84.3901 103.099 97.4215 89.3096 113.349 72.6797C129.276 56.0498 142.616 41.9798 142.992 41.4128C143.888 40.0649 143.884 37.3999 142.984 35.8572C142.236 34.5744 139.543 33.0148 138.077 33.0148C137.124 33.0148 132.81 35.1469 76.0695 63.6655L39.724 81.9328L22.9187 77.2258C13.6755 74.6369 6.11452 72.4361 6.11602 72.335C6.11789 72.234 16.92 68.1083 30.1214 63.1664C43.3228 58.2249 61.7744 51.3075 71.1252 47.7944C80.476 44.2813 93.3393 39.4493 99.7101 37.0567C113.192 31.9932 167.824 11.5235 168.65 11.2259C169.652 10.8654 171.106 10.9558 171.565 11.407ZM110.114 59.9326C102.616 67.6243 71.3674 100.49 70.9578 101.114C70.6679 101.555 68.717 108.78 66.6223 117.167C64.5275 125.555 62.7082 132.611 62.5789 132.846C62.45 133.082 58.9368 123.673 54.772 111.936C50.6072 100.2 47.2443 90.5657 47.2989 90.5267C47.4842 90.3937 83.2206 72.4504 96.7209 65.7112C104.119 62.0181 110.333 58.8559 110.528 58.6836C110.723 58.5116 111.052 58.3708 111.259 58.3708C111.467 58.3708 110.951 59.0735 110.114 59.9326ZM85.7962 118.984C89.2357 121.7 92.0371 124.015 92.021 124.128C91.978 124.431 72.1973 142.231 72.0586 142.091C71.9932 142.026 73.4322 136.019 75.256 128.743C77.0798 121.467 78.6683 115.13 78.786 114.661C78.9033 114.192 79.1215 113.861 79.271 113.926C79.4201 113.991 82.3567 116.267 85.7962 118.984Z" fill="#0098FF"></path>
</svg>
